<svg version="1" xmlns="http://www.w3.org/2000/svg" width="266.667" height="266.667" viewBox="0 0 200.000000 200.000000"><path d="M10.2 80.9c.2 1.2 1.5 1.6 5 1.6 6.2.1 9.5 2 10.2 5.9.2 1.7.4 8 .3 13.9-.2 12.9-.8 13.7-9.9 13.7-4.5 0-5.8.3-5.8 1.5 0 2.3 63.8 2.2 73.6-.1 11.3-2.6 16.9-6.4 19.7-13.4 3.1-7.5-.4-15-8.8-18.9-10.2-4.8-15.8-5.4-51.3-5.6-30-.2-33.3-.1-33 1.4zm24.4 18.4c.1 15.7 0 16.7-1.7 16.7-1.8 0-1.9-1.1-1.9-16.9 0-15.5.1-16.9 1.8-16.7 1.5.3 1.7 1.9 1.8 16.9zm33.7-15.1c3 1.6 5.5 4.8 6.3 8.3 2 8.7.1 18-4.3 21.5-3.7 2.9-14.8 2.9-16.3.1-1.2-2.3-1.7-24.5-.6-27.8 1.2-3.8 9.5-5 14.9-2.1zM85 91.5c3.5 7.2 2.5 13.5-3 19.9-4.1 4.7-5.5 4.6-2.8-.1 3.4-5.7 3.5-16.6.3-23-1.4-2.6-2.5-4.9-2.5-5.1 0-.1 1.4.7 3 2 1.7 1.2 3.9 4 5 6.3zM109.6 80.7c-.3.7-.2 1.4.2 1.4.4.1 2 .3 3.6.5 5.4.6 5.9 2 6.1 16.5l.2 13.2 3.1 2.8c3.9 3.5 11.5 5.1 26.1 5.4 11.5.2 15.8-.4 21.7-3.1 4.7-2.2 5.7-5 5.9-17.1.1-5.9.6-11.8 1.3-12.9 1.2-2.3 5.9-4.6 9.5-4.8 1.2 0 2.3-.8 2.5-1.7.3-1.4-1.6-1.6-15.3-1.5-8.5 0-15.5.4-15.5.8 0 2 .5 2.4 4.3 3.3 6.7 1.7 8 4.4 8.1 17.4.1 9.9-.1 11.2-2 12.9-5.2 4.9-19.1 5.5-21.5 1-1.6-3-1.6-28.2 0-30.1.6-.8 2.5-1.7 4.1-2.1 1.7-.3 3-1.2 3-1.9 0-2-44.7-2-45.4 0zm18.9 17c0 8.4-.3 15.3-.6 15.3-2.4 0-3.2-3.8-3.1-15.3.1-16.4 0-15.6 2-15.4 1.6.1 1.7 1.5 1.7 15.4z"/></svg>